<?xml version="1.0" encoding="UTF-8"?>
<svg width="24px" height="24px" viewBox="0 0 24 24" version="1.1" xmlns="http://www.w3.org/2000/svg">
    <path d="M4,5 L4,19 L20,19 L20,5 L4,5 Z M2,5 C2,3.89543 2.89543,3 4,3 L20,3 C21.1046,3 22,3.89543 22,5 L22,19 C22,20.1046 21.1046,21 20,21 L4,21 C2.89543,21 2,20.1046 2,19 L2,5 Z M9,8 L9,10 L7,10 L7,12 L9,12 L9,14 L11,14 L11,12 L13,12 L13,10 L11,10 L11,8 L9,8 Z M15,9 C15,8.44772 15.4477,8 16,8 C16.5523,8 17,8.44772 17,9 C17,9.55228 16.5523,10 16,10 C15.4477,10 15,9.55228 15,9 Z M16,15 C15.4477,15 15,14.5523 15,14 C15,13.4477 15.4477,13 16,13 C16.5523,13 17,13.4477 17,14 C17,14.5523 16.5523,15 16,15 Z" fill="currentColor" />
</svg>
