<?xml version="1.0" encoding="UTF-8"?>
<svg width="24px" height="24px" viewBox="0 0 24 24" version="1.1" xmlns="http://www.w3.org/2000/svg">
    <path d="M7,13 L7,19 L5,19 L5,13 L7,13 Z M12,9 L12,19 L10,19 L10,9 L12,9 Z M17,5 L17,19 L15,19 L15,5 L17,5 Z M3,21 L5,21 L5,20 L7,20 L7,21 L9,21 L9,20 L10,20 L10,21 L12,21 L12,20 L14,20 L14,21 L16,21 L16,20 L17,20 L17,21 L19,21 C20.1046,21 21,20.1046 21,19 L21,5 C21,3.89543 20.1046,3 19,3 L17,3 L17,4 L15,4 L15,3 L3,3 C1.89543,3 1,3.89543 1,5 L1,19 C1,20.1046 1.89543,21 3,21 Z M3,5 L15,5 L15,7 L3,7 L3,5 Z M3,8 L10,8 L10,11 L3,11 L3,8 Z M3,12 L5,12 L5,15 L3,15 L3,12 Z" fill="currentColor" />
</svg>
