<?xml version="1.0" encoding="UTF-8"?>
<svg width="24px" height="24px" viewBox="0 0 24 24" version="1.1" xmlns="http://www.w3.org/2000/svg">
    <path d="M9.954,2.21 L9.954,2.21 L14.046,2.21 L14.294,4.518 C14.7806,4.7175 15.2453,4.97356 15.679,5.2836 L17.834,4.427 L19.88,8.173 L18.192,9.879 C18.2172,10.0834 18.2304,10.2913 18.2304,10.502 C18.2304,10.7127 18.2172,10.9206 18.192,11.125 L18.192,11.125 L19.88,12.827 L17.834,16.573 L15.683,15.718 C15.2474,16.0272 14.7824,16.2831 14.295,16.484 L14.295,16.484 L14.046,18.791 L9.954,18.791 L9.706,16.483 C9.21937,16.2835 8.75467,16.0274 8.321,15.717 L8.321,15.717 L6.166,16.573 L4.12,12.827 L5.808,11.121 C5.7828,10.9166 5.7696,10.7087 5.7696,10.498 C5.7696,10.2873 5.7828,10.0794 5.808,9.875 L5.808,9.875 L4.12,8.173 L6.166,4.427 L8.317,5.282 C8.7526,4.9728 9.2176,4.7169 9.705,4.516 L9.705,4.516 L9.954,2.21 Z M10.978,4.21 L11.176,6.056 C11.2095,6.3642 11.4085,6.6266 11.7,6.73 C12.4143,6.97808 13.0635,7.39287 13.591,7.943 C13.7822,8.14569 14.0628,8.24544 14.344,8.204 L16.04,7.815 L17.062,9.685 L15.743,10.959 C15.5265,11.1693 15.439,11.4735 15.511,11.764 C15.5683,11.9937 15.5985,12.2278 15.6,12.463 C15.5992,12.6759 15.5724,12.8878 15.52,13.094 C15.4454,13.3817 15.5315,13.6839 15.745,13.893 L15.745,13.893 L17.062,15.166 L16.04,17.035 L14.344,16.646 C14.0628,16.6046 13.7822,16.7043 13.591,16.907 C13.0643,17.4563 12.4154,17.8705 11.702,18.118 C11.4122,18.2213 11.2147,18.4815 11.181,18.788 L11.181,18.788 L10.978,20.791 L13.022,20.791 L13.224,18.944 C13.2575,18.6358 13.4565,18.3734 13.748,18.27 C14.4623,18.0219 15.1115,17.6071 15.639,17.057 C15.8302,16.8543 16.1108,16.7546 16.392,16.796 L16.392,16.796 L18.088,17.185 L19.11,15.315 L17.791,14.041 C17.5745,13.8307 17.487,13.5265 17.559,13.236 C17.6165,13.0064 17.6466,12.7724 17.648,12.537 C17.6472,12.3241 17.6204,12.1122 17.568,11.906 C17.4934,11.6183 17.5795,11.3161 17.793,11.107 L17.793,11.107 L19.11,9.834 L18.088,7.965 L16.392,8.354 C16.1108,8.39544 15.8302,8.29569 15.639,8.093 C15.1123,7.54366 14.4634,7.12952 13.75,6.882 C13.4602,6.77872 13.2627,6.51846 13.229,6.212 L13.229,6.212 L13.022,4.21 L10.978,4.21 Z M12,8 C9.791,8 8,9.791 8,12 C8,14.209 9.791,16 12,16 C14.209,16 16,14.209 16,12 C16,9.791 14.209,8 12,8 Z M12,10 C13.1046,10 14,10.8954 14,12 C14,13.1046 13.1046,14 12,14 C10.8954,14 10,13.1046 10,12 C10,10.8954 10.8954,10 12,10 Z" fill="currentColor" />
</svg>
